<svg width="30" height="20" viewBox="0 0 30 20" fill="none" xmlns="http://www.w3.org/2000/svg">
<mask id="sp-mask" fill="white">
<path d="M23.4553 7.87524H30L23.0996 19.6876H11.1466L6.54569 11.8124H0L6.90136 0H18.8544L23.4553 7.87524Z"/>
</mask>
<path d="M23.4553 7.87524L21.7034 8.89875L22.2908 9.90423H23.4553V7.87524ZM30 7.87524L31.752 8.89867L33.5351 5.84624H30V7.87524ZM23.0996 19.6876V21.7166H24.2642L24.8516 20.711L23.0996 19.6876ZM11.1466 19.6876L9.39467 20.7111L9.9821 21.7166H11.1466V19.6876ZM6.54569 11.8124L8.29761 10.7888L7.71019 9.78336H6.54569V11.8124ZM0 11.8124L-1.7519 10.7888L-3.53535 13.8414H0V11.8124ZM6.90136 0V-2.029H5.73688L5.14945 -1.02355L6.90136 0ZM18.8544 0L20.6063 -1.02352L20.0189 -2.029H18.8544V0ZM23.4553 7.87524V9.90423H30V7.87524V5.84624H23.4553V7.87524ZM30 7.87524L28.248 6.8518L21.3477 18.6642L23.0996 19.6876L24.8516 20.711L31.752 8.89867L30 7.87524ZM23.0996 19.6876V17.6586H11.1466V19.6876V21.7166H23.0996V19.6876ZM11.1466 19.6876L12.8985 18.6641L8.29761 10.7888L6.54569 11.8124L4.79377 12.8359L9.39467 20.7111L11.1466 19.6876ZM6.54569 11.8124V9.78336H0V11.8124V13.8414H6.54569V11.8124ZM0 11.8124L1.7519 12.8359L8.65326 1.02355L6.90136 0L5.14945 -1.02355L-1.7519 10.7888L0 11.8124ZM6.90136 0V2.029H18.8544V0V-2.029H6.90136V0ZM18.8544 0L17.1025 1.02352L21.7034 8.89875L23.4553 7.87524L25.2072 6.85172L20.6063 -1.02352L18.8544 0Z" fill="currentColor" mask="url(#sp-mask)"/>
</svg>
