<svg width="16" height="16" viewBox="0 0 16 16" fill="none" xmlns="http://www.w3.org/2000/svg">
<path d="M5 6C5 6.13261 4.94732 6.25979 4.85355 6.35355C4.75979 6.44732 4.63261 6.5 4.5 6.5H1.5C1.36739 6.5 1.24021 6.44732 1.14645 6.35355C1.05268 6.25979 1 6.13261 1 6C1 5.86739 1.05268 5.74021 1.14645 5.64645C1.24021 5.55268 1.36739 5.5 1.5 5.5H4.5C4.63261 5.5 4.75979 5.55268 4.85355 5.64645C4.94732 5.74021 5 5.86739 5 6ZM4.5 7.5H1.5C1.36739 7.5 1.24021 7.55268 1.14645 7.64645C1.05268 7.74021 1 7.86739 1 8C1 8.13261 1.05268 8.25979 1.14645 8.35355C1.24021 8.44732 1.36739 8.5 1.5 8.5H4.5C4.63261 8.5 4.75979 8.44732 4.85355 8.35355C4.94732 8.25979 5 8.13261 5 8C5 7.86739 4.94732 7.74021 4.85355 7.64645C4.75979 7.55268 4.63261 7.5 4.5 7.5ZM4.5 9.5H1.5C1.36739 9.5 1.24021 9.55268 1.14645 9.64645C1.05268 9.74021 1 9.86739 1 10C1 10.1326 1.05268 10.2598 1.14645 10.3536C1.24021 10.4473 1.36739 10.5 1.5 10.5H4.5C4.63261 10.5 4.75979 10.4473 4.85355 10.3536C4.94732 10.2598 5 10.1326 5 10C5 9.86739 4.94732 9.74021 4.85355 9.64645C4.75979 9.55268 4.63261 9.5 4.5 9.5ZM4.5 11.5H1.5C1.36739 11.5 1.24021 11.5527 1.14645 11.6464C1.05268 11.7402 1 11.8674 1 12C1 12.1326 1.05268 12.2598 1.14645 12.3536C1.24021 12.4473 1.36739 12.5 1.5 12.5H4.5C4.63261 12.5 4.75979 12.4473 4.85355 12.3536C4.94732 12.2598 5 12.1326 5 12C5 11.8674 4.94732 11.7402 4.85355 11.6464C4.75979 11.5527 4.63261 11.5 4.5 11.5ZM9.5 7.5H6.5C6.36739 7.5 6.24021 7.55268 6.14645 7.64645C6.05268 7.74021 6 7.86739 6 8C6 8.13261 6.05268 8.25979 6.14645 8.35355C6.24021 8.44732 6.36739 8.5 6.5 8.5H9.5C9.63261 8.5 9.75979 8.44732 9.85355 8.35355C9.94732 8.25979 10 8.13261 10 8C10 7.86739 9.94732 7.74021 9.85355 7.64645C9.75979 7.55268 9.63261 7.5 9.5 7.5ZM9.5 9.5H6.5C6.36739 9.5 6.24021 9.55268 6.14645 9.64645C6.05268 9.74021 6 9.86739 6 10C6 10.1326 6.05268 10.2598 6.14645 10.3536C6.24021 10.4473 6.36739 10.5 6.5 10.5H9.5C9.63261 10.5 9.75979 10.4473 9.85355 10.3536C9.94732 10.2598 10 10.1326 10 10C10 9.86739 9.94732 9.74021 9.85355 9.64645C9.75979 9.55268 9.63261 9.5 9.5 9.5ZM9.5 11.5H6.5C6.36739 11.5 6.24021 11.5527 6.14645 11.6464C6.05268 11.7402 6 11.8674 6 12C6 12.1326 6.05268 12.2598 6.14645 12.3536C6.24021 12.4473 6.36739 12.5 6.5 12.5H9.5C9.63261 12.5 9.75979 12.4473 9.85355 12.3536C9.94732 12.2598 10 12.1326 10 12C10 11.8674 9.94732 11.7402 9.85355 11.6464C9.75979 11.5527 9.63261 11.5 9.5 11.5ZM14.5 5.5H11.5C11.3674 5.5 11.2402 5.55268 11.1464 5.64645C11.0527 5.74021 11 5.86739 11 6C11 6.13261 11.0527 6.25979 11.1464 6.35355C11.2402 6.44732 11.3674 6.5 11.5 6.5H14.5C14.6326 6.5 14.7598 6.44732 14.8536 6.35355C14.9473 6.25979 15 6.13261 15 6C15 5.86739 14.9473 5.74021 14.8536 5.64645C14.7598 5.55268 14.6326 5.5 14.5 5.5ZM11.5 4.5H14.5C14.6326 4.5 14.7598 4.44732 14.8536 4.35355C14.9473 4.25979 15 4.13261 15 4C15 3.86739 14.9473 3.74021 14.8536 3.64645C14.7598 3.55268 14.6326 3.5 14.5 3.5H11.5C11.3674 3.5 11.2402 3.55268 11.1464 3.64645C11.0527 3.74021 11 3.86739 11 4C11 4.13261 11.0527 4.25979 11.1464 4.35355C11.2402 4.44732 11.3674 4.5 11.5 4.5ZM14.5 7.5H11.5C11.3674 7.5 11.2402 7.55268 11.1464 7.64645C11.0527 7.74021 11 7.86739 11 8C11 8.13261 11.0527 8.25979 11.1464 8.35355C11.2402 8.44732 11.3674 8.5 11.5 8.5H14.5C14.6326 8.5 14.7598 8.44732 14.8536 8.35355C14.9473 8.25979 15 8.13261 15 8C15 7.86739 14.9473 7.74021 14.8536 7.64645C14.7598 7.55268 14.6326 7.5 14.5 7.5ZM14.5 9.5H11.5C11.3674 9.5 11.2402 9.55268 11.1464 9.64645C11.0527 9.74021 11 9.86739 11 10C11 10.1326 11.0527 10.2598 11.1464 10.3536C11.2402 10.4473 11.3674 10.5 11.5 10.5H14.5C14.6326 10.5 14.7598 10.4473 14.8536 10.3536C14.9473 10.2598 15 10.1326 15 10C15 9.86739 14.9473 9.74021 14.8536 9.64645C14.7598 9.55268 14.6326 9.5 14.5 9.5ZM14.5 11.5H11.5C11.3674 11.5 11.2402 11.5527 11.1464 11.6464C11.0527 11.7402 11 11.8674 11 12C11 12.1326 11.0527 12.2598 11.1464 12.3536C11.2402 12.4473 11.3674 12.5 11.5 12.5H14.5C14.6326 12.5 14.7598 12.4473 14.8536 12.3536C14.9473 12.2598 15 12.1326 15 12C15 11.8674 14.9473 11.7402 14.8536 11.6464C14.7598 11.5527 14.6326 11.5 14.5 11.5Z" fill="#0A0A0A"/>
</svg>
