<svg width="25" height="21" viewBox="0 0 25 21" fill="none" xmlns="http://www.w3.org/2000/svg">
<path d="M2.24121 17.3691V9.88965C2.24121 9.27441 2.42285 8.79395 2.78613 8.44824C3.15527 8.10254 3.66211 7.92969 4.30664 7.92969H6.24902V4.00098C6.24902 3.05762 6.49219 2.3457 6.97852 1.86523C7.4707 1.38477 8.19141 1.14453 9.14062 1.14453H19.7578C20.707 1.14453 21.4248 1.38477 21.9111 1.86523C22.3975 2.3457 22.6406 3.05762 22.6406 4.00098V17.3164C22.6406 18.2539 22.3975 18.9629 21.9111 19.4434C21.4248 19.9297 20.707 20.1729 19.7578 20.1729H5.11523C4.17773 20.1729 3.46289 19.9326 2.9707 19.4521C2.48438 18.9717 2.24121 18.2773 2.24121 17.3691ZM3.97266 17.2812C3.97266 17.6152 4.08105 17.8906 4.29785 18.1074C4.51465 18.3301 4.78711 18.4414 5.11523 18.4414C5.4375 18.4414 5.70703 18.333 5.92383 18.1162C6.14062 17.8994 6.24902 17.6211 6.24902 17.2812V9.65234H4.52637C4.35059 9.65234 4.21289 9.70215 4.11328 9.80176C4.01953 9.90137 3.97266 10.0361 3.97266 10.2061V17.2812ZM7.72559 18.4414H19.6436C20.0596 18.4414 20.376 18.333 20.5928 18.1162C20.8096 17.9053 20.918 17.5889 20.918 17.167V4.15039C20.918 3.72852 20.8096 3.40918 20.5928 3.19238C20.376 2.97559 20.0596 2.86719 19.6436 2.86719H9.24609C8.83594 2.86719 8.52246 2.97559 8.30566 3.19238C8.08887 3.40918 7.98047 3.72852 7.98047 4.15039V17.2988C7.98047 17.7266 7.89551 18.1074 7.72559 18.4414ZM10.2129 6.62012C10.043 6.62012 9.89941 6.56152 9.78223 6.44434C9.6709 6.32715 9.61523 6.18652 9.61523 6.02246C9.61523 5.86426 9.6709 5.72949 9.78223 5.61816C9.89941 5.50684 10.043 5.45117 10.2129 5.45117H18.6943C18.8584 5.45117 18.9961 5.50684 19.1074 5.61816C19.2246 5.72949 19.2832 5.86426 19.2832 6.02246C19.2832 6.18652 19.2246 6.32715 19.1074 6.44434C18.9961 6.56152 18.8584 6.62012 18.6943 6.62012H10.2129ZM10.2129 9.65234C10.043 9.65234 9.89941 9.59961 9.78223 9.49414C9.6709 9.38281 9.61523 9.24219 9.61523 9.07227C9.61523 8.9082 9.6709 8.77051 9.78223 8.65918C9.89941 8.54199 10.043 8.4834 10.2129 8.4834H18.6943C18.8584 8.4834 18.9961 8.54199 19.1074 8.65918C19.2246 8.77051 19.2832 8.9082 19.2832 9.07227C19.2832 9.24219 19.2246 9.38281 19.1074 9.49414C18.9961 9.59961 18.8584 9.65234 18.6943 9.65234H10.2129ZM10.7139 15.7695C10.3682 15.7695 10.0957 15.6729 9.89648 15.4795C9.70312 15.2803 9.60645 15.0107 9.60645 14.6709V12.6318C9.60645 12.2861 9.70312 12.0166 9.89648 11.8232C10.0957 11.6299 10.3682 11.5332 10.7139 11.5332H12.9023C13.2422 11.5332 13.5088 11.6299 13.7021 11.8232C13.9014 12.0166 14.001 12.2861 14.001 12.6318V14.6709C14.001 15.0107 13.9014 15.2803 13.7021 15.4795C13.5088 15.6729 13.2422 15.7695 12.9023 15.7695H10.7139ZM15.5566 12.7021C15.3867 12.7021 15.2461 12.6465 15.1348 12.5352C15.0234 12.4238 14.9678 12.2891 14.9678 12.1309C14.9678 11.9551 15.0234 11.8115 15.1348 11.7002C15.2461 11.5889 15.3867 11.5332 15.5566 11.5332H18.6855C18.8555 11.5332 18.9961 11.5889 19.1074 11.7002C19.2188 11.8115 19.2744 11.9551 19.2744 12.1309C19.2744 12.2891 19.2188 12.4238 19.1074 12.5352C18.9961 12.6465 18.8555 12.7021 18.6855 12.7021H15.5566ZM15.5566 15.7695C15.3867 15.7695 15.2461 15.7139 15.1348 15.6025C15.0234 15.4912 14.9678 15.3564 14.9678 15.1982C14.9678 15.0283 15.0234 14.8877 15.1348 14.7764C15.2461 14.6592 15.3867 14.6006 15.5566 14.6006H18.6855C18.8555 14.6006 18.9961 14.6592 19.1074 14.7764C19.2188 14.8877 19.2744 15.0283 19.2744 15.1982C19.2744 15.3564 19.2188 15.4912 19.1074 15.6025C18.9961 15.7139 18.8555 15.7695 18.6855 15.7695H15.5566Z" fill="currentColor"/>
</svg>
