<svg width="295" height="32" viewBox="0 0 295 32" fill="none" xmlns="http://www.w3.org/2000/svg">
<path d="M294.531 29.2673C294.68 29.4159 294.798 29.5924 294.878 29.7866C294.959 29.9808 295 30.189 295 30.3992C295 30.6094 294.959 30.8176 294.878 31.0118C294.798 31.206 294.68 31.3825 294.531 31.5311C294.382 31.6798 294.206 31.7977 294.012 31.8781C293.818 31.9586 293.609 32 293.399 32C293.189 32 292.981 31.9586 292.787 31.8781C292.592 31.7977 292.416 31.6798 292.267 31.5311L279 18.2619L265.733 31.5311C265.433 31.8313 265.025 32 264.601 32C264.176 32 263.769 31.8313 263.469 31.5311C263.169 31.2309 263 30.8238 263 30.3992C263 29.9746 263.169 29.5675 263.469 29.2673L276.738 16L263.469 2.73274C263.169 2.43253 263 2.02536 263 1.6008C263 1.17624 263.169 0.769072 263.469 0.468863C263.769 0.168655 264.176 0 264.601 0C265.025 0 265.433 0.168655 265.733 0.468863L279 13.7381L292.267 0.468863C292.567 0.168655 292.975 -8.36906e-09 293.399 0C293.824 8.36906e-09 294.231 0.168655 294.531 0.468863C294.831 0.769072 295 1.17624 295 1.6008C295 2.02536 294.831 2.43253 294.531 2.73274L281.262 16L294.531 29.2673Z" fill="#F5F2EF"/>
</svg>
