<svg width="21" height="21" viewBox="0 0 21 21" fill="none" xmlns="http://www.w3.org/2000/svg">
<path d="M19.3846 4.8466H12.4496L15.9176 1.37958C16.0692 1.22803 16.1543 1.02247 16.1543 0.808141C16.1543 0.593809 16.0692 0.388255 15.9176 0.236699C15.766 0.0851433 15.5605 0 15.3462 0C15.1318 0 14.9263 0.0851433 14.7747 0.236699L10.5 4.51242L6.22529 0.236699C6.15025 0.161656 6.06116 0.102129 5.96311 0.061516C5.86506 0.0209031 5.75997 0 5.65385 0C5.54772 0 5.44263 0.0209031 5.34458 0.061516C5.24654 0.102129 5.15745 0.161656 5.0824 0.236699C4.93085 0.388255 4.8457 0.593809 4.8457 0.808141C4.8457 1.02247 4.93085 1.22803 5.0824 1.37958L8.55043 4.8466H1.61538C1.18696 4.8466 0.776078 5.0168 0.473135 5.31974C0.170192 5.62268 0 6.03356 0 6.46199V18.5774C0 19.0058 0.170192 19.4167 0.473135 19.7196C0.776078 20.0226 1.18696 20.1928 1.61538 20.1928H19.3846C19.813 20.1928 20.2239 20.0226 20.5269 19.7196C20.8298 19.4167 21 19.0058 21 18.5774V6.46199C21 6.03356 20.8298 5.62268 20.5269 5.31974C20.2239 5.0168 19.813 4.8466 19.3846 4.8466ZM1.61538 6.46199H12.1154V18.5774H1.61538V6.46199ZM19.3846 18.5774H13.7308V6.46199H19.3846V18.5774ZM17.7692 10.0966C17.7692 10.3362 17.6982 10.5705 17.565 10.7697C17.4319 10.9689 17.2427 11.1242 17.0213 11.2159C16.7999 11.3076 16.5563 11.3316 16.3213 11.2849C16.0863 11.2381 15.8704 11.1227 15.701 10.9533C15.5316 10.7839 15.4162 10.568 15.3694 10.333C15.3227 10.0979 15.3467 9.85435 15.4384 9.63297C15.5301 9.41159 15.6854 9.22237 15.8846 9.08924C16.0838 8.95612 16.3181 8.88506 16.5577 8.88506C16.879 8.88506 17.1872 9.01271 17.4144 9.23992C17.6416 9.46712 17.7692 9.77528 17.7692 10.0966ZM17.7692 14.9428C17.7692 15.1824 17.6982 15.4166 17.565 15.6159C17.4319 15.8151 17.2427 15.9704 17.0213 16.0621C16.7999 16.1538 16.5563 16.1778 16.3213 16.131C16.0863 16.0843 15.8704 15.9689 15.701 15.7994C15.5316 15.63 15.4162 15.4141 15.3694 15.1791C15.3227 14.9441 15.3467 14.7005 15.4384 14.4791C15.5301 14.2577 15.6854 14.0685 15.8846 13.9354C16.0838 13.8023 16.3181 13.7312 16.5577 13.7312C16.879 13.7312 17.1872 13.8589 17.4144 14.0861C17.6416 14.3133 17.7692 14.6214 17.7692 14.9428Z" fill="currentColor"/>
</svg>
