<svg width="22" height="17" viewBox="0 0 22 17" fill="none" xmlns="http://www.w3.org/2000/svg">
<path d="M18.3076 0C20.146 0 21.6367 1.3838 21.6367 3.09082V13.9092C21.6367 15.6162 20.146 17 18.3076 17H3.3291L2.98926 16.9834C1.31051 16.8254 4.86584e-05 15.5097 0 13.9092V3.09082C5.16157e-05 1.3838 1.49076 0 3.3291 0H18.3076ZM1.66406 13.9092C1.66411 14.7627 2.40995 15.4541 3.3291 15.4541H8.6875L2.00879 10.918C1.88519 10.834 1.77086 10.7415 1.66406 10.6465V13.9092ZM19.9727 10.4814C19.8211 10.6377 19.654 10.7874 19.4619 10.918L12.7832 15.4541H18.3076C19.2268 15.4541 19.9726 14.7627 19.9727 13.9092V10.4814ZM11.7168 2.58398C11.1317 2.18671 10.337 2.18665 9.75195 2.58398L2.99121 7.17676C2.08306 7.79432 2.08264 9.05363 2.99121 9.6709L9.75195 14.2637C10.3367 14.6603 11.132 14.6603 11.7168 14.2637L18.4785 9.6709C19.3868 9.05367 19.3863 7.79437 18.4785 7.17676L11.7168 2.58398ZM6.6709 8.0293C9.44181 7.28011 12.4161 8.0333 14.5547 10.042C13.8763 11.3247 12.4577 12.21 10.8184 12.21C8.52573 12.2098 6.65727 10.4746 6.65723 8.3457C6.65724 8.23769 6.66259 8.13346 6.6709 8.0293ZM10.8184 4.48242C13.1109 4.48263 14.9793 6.21692 14.9795 8.3457C14.9795 8.65443 14.9412 8.95566 14.8623 9.24512C12.6444 7.31745 9.66866 6.56067 6.84766 7.19043C7.37626 5.62183 8.95843 4.48242 10.8184 4.48242ZM19.4619 5.92871C19.6533 6.05882 19.8216 6.20572 19.9727 6.36133V3.09082C19.9726 2.23733 19.2268 1.5459 18.3076 1.5459H13.0098L19.4619 5.92871ZM3.3291 1.5459C2.40995 1.5459 1.66411 2.23733 1.66406 3.09082V6.20117C1.72223 6.14934 1.78058 6.0965 1.84375 6.04785L2.00879 5.92871L8.46191 1.5459H3.3291Z" fill="currentColor"/>
</svg>
