<svg width="16" height="16" viewBox="0 0 16 16" fill="none" xmlns="http://www.w3.org/2000/svg">
<path d="M12.8457 2.5C14.0352 2.5 15 3.39543 15 4.5V11.5C15 12.6046 14.0352 13.5 12.8457 13.5H3.1543L2.93359 13.4893C1.84754 13.3868 1 12.5355 1 11.5V4.5C1 3.39543 1.96476 2.5 3.1543 2.5H12.8457ZM2.07715 11.5C2.07715 12.0523 2.55953 12.5 3.1543 12.5H6.62109L2.2998 9.56445C2.21987 9.51015 2.14622 9.45014 2.07715 9.38867V11.5ZM13.9229 9.28223C13.8248 9.38326 13.717 9.48002 13.5928 9.56445L9.27148 12.5H12.8457C13.4405 12.5 13.9229 12.0523 13.9229 11.5V9.28223ZM8.58203 4.17188C8.20353 3.91481 7.68913 3.91496 7.31055 4.17188L2.93555 7.14355C2.34792 7.54315 2.34765 8.35841 2.93555 8.75781L7.31055 11.7295C7.68894 11.986 8.20374 11.9862 8.58203 11.7295L12.957 8.75781C13.5444 8.35842 13.5441 7.54318 12.957 7.14355L8.58203 4.17188ZM5.31641 7.69531C7.10943 7.21055 9.03415 7.69815 10.418 8.99805C9.97904 9.82801 9.06078 10.4004 8 10.4004C6.51653 10.4003 5.30765 9.27792 5.30762 7.90039C5.30762 7.83038 5.31102 7.76282 5.31641 7.69531ZM8 5.40039C9.48349 5.40052 10.6924 6.52284 10.6924 7.90039C10.6924 8.10026 10.6673 8.29504 10.6162 8.48242C9.18114 7.23519 7.25597 6.74486 5.43066 7.15234C5.7727 6.13737 6.79652 5.40039 8 5.40039ZM13.5928 6.33594C13.7166 6.42012 13.8251 6.51552 13.9229 6.61621V4.5C13.9229 3.94772 13.4405 3.5 12.8457 3.5H9.41797L13.5928 6.33594ZM3.1543 3.5C2.55953 3.5 2.07715 3.94772 2.07715 4.5V6.5127C2.1147 6.47923 2.15161 6.4445 2.19238 6.41309L2.2998 6.33594L6.47461 3.5H3.1543Z" fill="#0A0A0A"/>
</svg>
