<svg width="16" height="16" viewBox="0 0 16 16" fill="none" xmlns="http://www.w3.org/2000/svg">
<path d="M8 14.5C9.28558 14.5 10.5423 14.1188 11.6112 13.4046C12.6801 12.6903 13.5132 11.6752 14.0052 10.4874C14.4972 9.29973 14.6259 7.99279 14.3751 6.73192C14.1243 5.47104 13.5052 4.31285 12.5962 3.40381C11.6872 2.49477 10.529 1.8757 9.26809 1.6249C8.00721 1.37409 6.70028 1.50282 5.51256 1.99479C4.32484 2.48676 3.30968 3.31988 2.59545 4.3888C1.88122 5.45772 1.5 6.71442 1.5 8C1.50182 9.72335 2.18722 11.3756 3.40582 12.5942C4.62441 13.8128 6.27665 14.4982 8 14.5ZM8 2.5C9.0878 2.5 10.1512 2.82257 11.0556 3.42692C11.9601 4.03127 12.6651 4.89025 13.0813 5.89524C13.4976 6.90024 13.6065 8.0061 13.3943 9.073C13.1821 10.1399 12.6583 11.1199 11.8891 11.8891C11.1199 12.6583 10.1399 13.1821 9.073 13.3943C8.0061 13.6065 6.90023 13.4976 5.89524 13.0813C4.89025 12.6651 4.03126 11.9601 3.42692 11.0556C2.82257 10.1512 2.5 9.0878 2.5 8C2.50165 6.54182 3.08165 5.14383 4.11274 4.11274C5.14383 3.08165 6.54182 2.50166 8 2.5ZM11 9.25C11 9.39834 10.956 9.54334 10.8736 9.66668C10.7912 9.79002 10.6741 9.88615 10.537 9.94291C10.4 9.99968 10.2492 10.0145 10.1037 9.98559C9.9582 9.95665 9.82456 9.88522 9.71967 9.78033C9.61478 9.67544 9.54335 9.54181 9.51441 9.39632C9.48547 9.25083 9.50032 9.10003 9.55709 8.96299C9.61386 8.82595 9.70999 8.70881 9.83332 8.6264C9.95666 8.54399 10.1017 8.5 10.25 8.5C10.4489 8.5 10.6397 8.57902 10.7803 8.71967C10.921 8.86032 11 9.05109 11 9.25ZM5 9.25C5 9.10167 5.04399 8.95666 5.1264 8.83333C5.20881 8.70999 5.32594 8.61386 5.46299 8.55709C5.60003 8.50033 5.75083 8.48548 5.89632 8.51441C6.0418 8.54335 6.17544 8.61478 6.28033 8.71967C6.38522 8.82456 6.45665 8.9582 6.48559 9.10368C6.51453 9.24917 6.49968 9.39997 6.44291 9.53702C6.38614 9.67406 6.29001 9.79119 6.16668 9.87361C6.04334 9.95602 5.89834 10 5.75 10C5.55109 10 5.36032 9.92099 5.21967 9.78033C5.07902 9.63968 5 9.44892 5 9.25ZM5.06688 6.25C5.71 5.13813 6.77938 4.5 8 4.5C9.22063 4.5 10.2894 5.1375 10.9325 6.25C10.9687 6.30691 10.993 6.37055 11.0039 6.43709C11.0149 6.50363 11.0122 6.5717 10.9962 6.6372C10.9801 6.70269 10.951 6.76427 10.9106 6.81822C10.8701 6.87217 10.8191 6.91738 10.7608 6.95113C10.7024 6.98487 10.6378 7.00646 10.5708 7.01459C10.5039 7.02272 10.436 7.01723 10.3712 6.99844C10.3065 6.97965 10.2462 6.94796 10.194 6.90526C10.1418 6.86257 10.0988 6.80976 10.0675 6.75C9.60063 5.94313 8.86688 5.5 8 5.5C7.13313 5.5 6.39937 5.94375 5.93312 6.75C5.86682 6.86487 5.7576 6.9487 5.62949 6.98305C5.50138 7.01739 5.36487 6.99943 5.25 6.93313C5.13513 6.86682 5.0513 6.7576 5.01696 6.62949C4.98261 6.50138 5.00057 6.36487 5.06688 6.25Z" fill="#0A0A0A"/>
</svg>
