<svg width="16" height="16" viewBox="0 0 16 16" fill="none" xmlns="http://www.w3.org/2000/svg">
<path d="M13.5 3.99997H9.20687L11.3538 1.85372C11.4476 1.7599 11.5003 1.63265 11.5003 1.49997C11.5003 1.36729 11.4476 1.24004 11.3538 1.14622C11.2599 1.0524 11.1327 0.999695 11 0.999695C10.8673 0.999695 10.7401 1.0524 10.6462 1.14622L8 3.7931L5.35375 1.14622C5.3073 1.09977 5.25214 1.06292 5.19145 1.03778C5.13075 1.01263 5.0657 0.999695 5 0.999695C4.9343 0.999695 4.86925 1.01263 4.80855 1.03778C4.74786 1.06292 4.6927 1.09977 4.64625 1.14622C4.55243 1.24004 4.49972 1.36729 4.49972 1.49997C4.49972 1.63265 4.55243 1.7599 4.64625 1.85372L6.79313 3.99997H2.5C2.23478 3.99997 1.98043 4.10533 1.79289 4.29287C1.60536 4.4804 1.5 4.73476 1.5 4.99997V12.5C1.5 12.7652 1.60536 13.0195 1.79289 13.2071C1.98043 13.3946 2.23478 13.5 2.5 13.5H13.5C13.7652 13.5 14.0196 13.3946 14.2071 13.2071C14.3946 13.0195 14.5 12.7652 14.5 12.5V4.99997C14.5 4.73476 14.3946 4.4804 14.2071 4.29287C14.0196 4.10533 13.7652 3.99997 13.5 3.99997ZM2.5 4.99997H9V12.5H2.5V4.99997ZM13.5 12.5H10V4.99997H13.5V12.5ZM12.5 7.24997C12.5 7.39831 12.456 7.54331 12.3736 7.66665C12.2912 7.78999 12.1741 7.88612 12.037 7.94288C11.9 7.99965 11.7492 8.0145 11.6037 7.98556C11.4582 7.95662 11.3246 7.88519 11.2197 7.7803C11.1148 7.67541 11.0434 7.54178 11.0144 7.39629C10.9855 7.2508 11.0003 7.1 11.0571 6.96296C11.1139 6.82592 11.21 6.70878 11.3333 6.62637C11.4567 6.54396 11.6017 6.49997 11.75 6.49997C11.9489 6.49997 12.1397 6.57899 12.2803 6.71964C12.421 6.86029 12.5 7.05106 12.5 7.24997ZM12.5 10.25C12.5 10.3983 12.456 10.5433 12.3736 10.6667C12.2912 10.79 12.1741 10.8861 12.037 10.9429C11.9 10.9996 11.7492 11.0145 11.6037 10.9856C11.4582 10.9566 11.3246 10.8852 11.2197 10.7803C11.1148 10.6754 11.0434 10.5418 11.0144 10.3963C10.9855 10.2508 11.0003 10.1 11.0571 9.96296C11.1139 9.82592 11.21 9.70878 11.3333 9.62637C11.4567 9.54396 11.6017 9.49997 11.75 9.49997C11.9489 9.49997 12.1397 9.57899 12.2803 9.71964C12.421 9.8603 12.5 10.0511 12.5 10.25Z" fill="#0A0A0A"/>
</svg>
