<svg width="24" height="24" viewBox="0 0 24 24" fill="none" xmlns="http://www.w3.org/2000/svg">
<mask id="path-1-inside-1_3_271" fill="white">
<path d="M18.7646 10.4248H24L18.4795 19.875H8.91699L5.23633 13.5752H0L5.52148 4.125H15.083L18.7646 10.4248Z"/>
</mask>
<path d="M18.7646 10.4248L17.4696 11.1816L17.9039 11.9248H18.7646V10.4248ZM24 10.4248L25.2952 11.1814L26.6134 8.9248H24V10.4248ZM18.4795 19.875V21.375H19.3404L19.7747 20.6316L18.4795 19.875ZM8.91699 19.875L7.62184 20.6317L8.05612 21.375H8.91699V19.875ZM5.23633 13.5752L6.53148 12.8185L6.0972 12.0752H5.23633V13.5752ZM0 13.5752L-1.29514 12.8185L-2.61367 15.0752H0V13.5752ZM5.52148 4.125V2.625H4.66063L4.22635 3.36829L5.52148 4.125ZM15.083 4.125L16.3781 3.36816L15.9438 2.625H15.083V4.125ZM18.7646 10.4248V11.9248H24V10.4248V8.9248H18.7646V10.4248ZM24 10.4248L22.7048 9.66819L17.1843 19.1184L18.4795 19.875L19.7747 20.6316L25.2952 11.1814L24 10.4248ZM18.4795 19.875V18.375H8.91699V19.875V21.375H18.4795V19.875ZM8.91699 19.875L10.2121 19.1183L6.53148 12.8185L5.23633 13.5752L3.94118 14.3319L7.62184 20.6317L8.91699 19.875ZM5.23633 13.5752V12.0752H0V13.5752V15.0752H5.23633V13.5752ZM0 13.5752L1.29514 14.3319L6.81662 4.88171L5.52148 4.125L4.22635 3.36829L-1.29514 12.8185L0 13.5752ZM5.52148 4.125V5.625H15.083V4.125V2.625H5.52148V4.125ZM15.083 4.125L13.7879 4.88184L17.4696 11.1816L18.7646 10.4248L20.0597 9.66796L16.3781 3.36816L15.083 4.125Z" fill="#0A0A0A" mask="url(#path-1-inside-1_3_271)"/>
</svg>
