<svg width="16" height="16" viewBox="0 0 16 16" fill="none" xmlns="http://www.w3.org/2000/svg">
<path d="M13.8894 8.16186C12.9825 9.28686 12.0869 9.88686 11.1519 9.98498C11.0585 9.99489 10.9646 9.9999 10.8707 9.99998C9.66442 9.99998 8.6588 9.18123 7.68317 8.38748C6.7513 7.62873 5.87067 6.91186 4.95192 7.01248C4.29505 7.08123 3.62005 7.55748 2.88942 8.46748C2.80407 8.56278 2.68544 8.62173 2.55795 8.63222C2.43045 8.6427 2.30378 8.60391 2.20401 8.52384C2.10424 8.44377 2.03896 8.3285 2.0216 8.20176C2.00423 8.07501 2.03611 7.94643 2.11067 7.84248C3.01755 6.71748 3.91317 6.11748 4.84817 6.01936C6.18067 5.87873 7.2663 6.76248 8.31567 7.61686C9.24755 8.37561 10.1282 9.09311 11.0469 8.99186C11.7038 8.92311 12.3788 8.44686 13.1094 7.53686C13.149 7.48165 13.1995 7.43509 13.2576 7.40003C13.3158 7.36496 13.3805 7.34212 13.4479 7.3329C13.5152 7.32368 13.5836 7.32827 13.6491 7.3464C13.7146 7.36452 13.7757 7.3958 13.8287 7.43833C13.8817 7.48085 13.9254 7.53372 13.9573 7.59372C13.9892 7.65372 14.0085 7.71959 14.014 7.78729C14.0196 7.855 14.0113 7.92314 13.9897 7.98754C13.968 8.05193 13.9335 8.11125 13.8882 8.16186H13.8894Z" fill="#0A0A0A"/>
</svg>
