<svg width="22" height="21" viewBox="0 0 22 21" fill="none" xmlns="http://www.w3.org/2000/svg">
<path d="M10.6523 19.7334C9.39844 19.7334 8.22363 19.4961 7.12793 19.0215C6.03223 18.5527 5.06836 17.9023 4.23633 17.0703C3.4043 16.2441 2.75098 15.2832 2.27637 14.1875C1.80762 13.0859 1.57324 11.9082 1.57324 10.6543C1.57324 9.40039 1.80762 8.22559 2.27637 7.12988C2.75098 6.02832 3.4043 5.06152 4.23633 4.22949C5.06836 3.39746 6.03223 2.74707 7.12793 2.27832C8.22363 1.80957 9.39844 1.5752 10.6523 1.5752C11.9062 1.5752 13.0811 1.80957 14.1768 2.27832C15.2783 2.74707 16.2451 3.39746 17.0771 4.22949C17.9092 5.06152 18.5596 6.02832 19.0283 7.12988C19.5029 8.22559 19.7402 9.40039 19.7402 10.6543C19.7402 11.9082 19.5029 13.0859 19.0283 14.1875C18.5596 15.2832 17.9092 16.2441 17.0771 17.0703C16.2451 17.9023 15.2783 18.5527 14.1768 19.0215C13.0811 19.4961 11.9062 19.7334 10.6523 19.7334ZM10.6523 17.9404C11.6602 17.9404 12.6035 17.75 13.4824 17.3691C14.3613 16.9941 15.1348 16.4727 15.8027 15.8047C16.4766 15.1367 17.001 14.3633 17.376 13.4844C17.751 12.6055 17.9385 11.6621 17.9385 10.6543C17.9385 9.64648 17.751 8.70312 17.376 7.82422C17.001 6.93945 16.4766 6.16602 15.8027 5.50391C15.1348 4.83594 14.3613 4.31445 13.4824 3.93945C12.6035 3.55859 11.6602 3.36816 10.6523 3.36816C9.65039 3.36816 8.70703 3.55859 7.82227 3.93945C6.94336 4.31445 6.16992 4.83594 5.50195 5.50391C4.83398 6.16602 4.30957 6.93945 3.92871 7.82422C3.55371 8.70312 3.36621 9.64648 3.36621 10.6543C3.36621 11.6621 3.55371 12.6055 3.92871 13.4844C4.30957 14.3633 4.83398 15.1367 5.50195 15.8047C6.16992 16.4727 6.94336 16.9941 7.82227 17.3691C8.70703 17.75 9.65039 17.9404 10.6523 17.9404ZM10.2393 14.75C9.59473 14.75 9.03809 14.6064 8.56934 14.3193C8.10059 14.0322 7.78711 13.6484 7.62891 13.168C7.60547 13.0977 7.58789 13.0273 7.57617 12.957C7.57031 12.8809 7.56738 12.8018 7.56738 12.7197C7.56738 12.4912 7.6377 12.3066 7.77832 12.166C7.91895 12.0195 8.10352 11.9463 8.33203 11.9463C8.70117 11.9463 8.96191 12.1338 9.11426 12.5088C9.20801 12.7607 9.35156 12.96 9.54492 13.1064C9.74414 13.2471 9.9873 13.3174 10.2744 13.3174C10.6084 13.3174 10.8691 13.2031 11.0566 12.9746C11.2441 12.7461 11.3379 12.4268 11.3379 12.0166V7.44629C11.3379 7.15918 11.4082 6.93066 11.5488 6.76074C11.6953 6.58496 11.9033 6.49707 12.1729 6.49707C12.4541 6.49707 12.668 6.58496 12.8145 6.76074C12.9609 6.93066 13.0342 7.15918 13.0342 7.44629V12.0518C13.0342 12.9189 12.791 13.5869 12.3047 14.0557C11.8242 14.5186 11.1357 14.75 10.2393 14.75Z" fill="currentColor"/>
</svg>
