<svg width="22" height="21" viewBox="0 0 22 21" fill="none" xmlns="http://www.w3.org/2000/svg">
<path d="M10.6523 7.12988L14.0713 9.7666L12.709 13.9766H8.60449L7.2334 9.7666L10.6523 7.12988ZM13.8164 3.07812L10.6436 5.64453L7.4707 3.07812L10.6436 2.03223L13.8164 3.07812ZM10.1162 2.33105H11.1973V8.25488H10.1162V2.33105ZM16.7871 5.19629L18.4922 7.34961L19.1777 11.1465L15.5918 9.13379L16.7871 5.19629ZM18.8613 8.38672L13.3682 10.6191L12.9639 9.61719L18.457 7.39355L18.8613 8.38672ZM12.6211 18.749L13.5439 14.7676L17.6748 14.8291L15.6357 17.4395L12.6211 18.749ZM15.9961 17.0527L15.1436 17.7031L11.4961 13.0361L12.3574 12.377L15.9961 17.0527ZM8.6748 18.7051L5.66016 17.3955L3.62109 14.7939L7.76074 14.7324L8.6748 18.7051ZM5.2998 17.0176L8.93848 12.3418L9.7998 13.001L6.15234 17.668L5.2998 17.0176ZM4.52637 5.19629L5.72168 9.13379L2.13574 11.1465L2.82129 7.34961L4.52637 5.19629ZM2.45215 8.38672L2.85645 7.39355L8.34961 9.61719L7.94531 10.6191L2.45215 8.38672ZM10.6523 19.7334C9.39844 19.7334 8.22363 19.4961 7.12793 19.0215C6.03223 18.5527 5.06836 17.9023 4.23633 17.0703C3.4043 16.2441 2.75098 15.2832 2.27637 14.1875C1.80762 13.0859 1.57324 11.9082 1.57324 10.6543C1.57324 9.40039 1.80762 8.22559 2.27637 7.12988C2.75098 6.02832 3.4043 5.06152 4.23633 4.22949C5.06836 3.39746 6.03223 2.74707 7.12793 2.27832C8.22363 1.80957 9.39844 1.5752 10.6523 1.5752C11.9062 1.5752 13.0811 1.80957 14.1768 2.27832C15.2783 2.74707 16.2451 3.39746 17.0771 4.22949C17.9092 5.06152 18.5596 6.02832 19.0283 7.12988C19.5029 8.22559 19.7402 9.40039 19.7402 10.6543C19.7402 11.9082 19.5029 13.0859 19.0283 14.1875C18.5596 15.2832 17.9092 16.2441 17.0771 17.0703C16.2451 17.9023 15.2783 18.5527 14.1768 19.0215C13.0811 19.4961 11.9062 19.7334 10.6523 19.7334ZM10.6523 18.3271C11.7129 18.3271 12.7061 18.125 13.6318 17.7207C14.5576 17.3223 15.3721 16.7744 16.0752 16.0771C16.7783 15.374 17.3291 14.5596 17.7275 13.6338C18.126 12.708 18.3252 11.7148 18.3252 10.6543C18.3252 9.59375 18.126 8.60059 17.7275 7.6748C17.3291 6.74902 16.7783 5.93457 16.0752 5.23145C15.3721 4.52832 14.5576 3.97754 13.6318 3.5791C12.7061 3.18066 11.7129 2.98145 10.6523 2.98145C9.59766 2.98145 8.60742 3.18066 7.68164 3.5791C6.75586 3.97754 5.93848 4.52832 5.22949 5.23145C4.52637 5.93457 3.97559 6.74902 3.57715 7.6748C3.18457 8.60059 2.98828 9.59375 2.98828 10.6543C2.98828 11.7148 3.18457 12.708 3.57715 13.6338C3.97559 14.5596 4.52637 15.374 5.22949 16.0771C5.93848 16.7744 6.75586 17.3223 7.68164 17.7207C8.60742 18.125 9.59766 18.3271 10.6523 18.3271Z" fill="currentColor"/>
</svg>
