<svg width="16" height="21" viewBox="0 0 16 21" fill="none" xmlns="http://www.w3.org/2000/svg">
<path d="M13.21 6.01367C13.21 6.18359 13.1602 6.33008 13.0605 6.45312C12.9609 6.57031 12.8262 6.64648 12.6562 6.68164L8.61328 7.56934C8.4375 7.61035 8.32031 7.66602 8.26172 7.73633C8.20898 7.80664 8.18262 7.93848 8.18262 8.13184V16.1826C8.18262 16.8096 8.07715 17.3516 7.86621 17.8086C7.66113 18.2656 7.3916 18.6377 7.05762 18.9248C6.72363 19.2119 6.36035 19.4258 5.96777 19.5664C5.58105 19.707 5.20605 19.7773 4.84277 19.7773C4.08105 19.7773 3.45703 19.5547 2.9707 19.1094C2.48438 18.6641 2.24121 18.0869 2.24121 17.3779C2.24121 16.6865 2.46094 16.1123 2.90039 15.6553C3.33984 15.1982 4.01367 14.873 4.92188 14.6797L6.32812 14.3896C6.68555 14.3135 6.84668 14.0762 6.81152 13.6777L6.79395 3.94824C6.79395 3.40918 7.11035 3.07227 7.74316 2.9375L12.2695 1.94434C12.5215 1.8916 12.7412 1.94141 12.9287 2.09375C13.1162 2.24609 13.21 2.4541 13.21 2.71777V6.01367Z" fill="currentColor"/>
</svg>
