<svg width="123" height="72" viewBox="0 0 123 72" fill="none" xmlns="http://www.w3.org/2000/svg">
<path d="M82.1225 0.000243673C82.57 0.00479115 83.0086 0.126787 83.3959 0.353759C83.7834 0.580808 84.1066 0.905365 84.3334 1.29614H85.9555C86.0398 1.29607 86.1226 1.32103 86.1928 1.36841C86.263 1.41586 86.3177 1.48378 86.35 1.56274C86.3823 1.6417 86.3909 1.72893 86.3744 1.81274C86.3579 1.89645 86.3169 1.97312 86.2572 2.03345L84.6635 3.6477C84.5675 4.77489 84.2183 5.82643 83.6781 6.74829C82.8629 7.13061 80.8191 8.11108 77.5463 9.68872C77.4692 9.72728 77.3339 9.78543 77.141 9.86255C76.9484 9.93962 76.7938 10.0169 76.6781 10.094C76.5678 10.1308 76.4397 10.1843 76.2944 10.2561C76.0076 10.1949 75.7511 10.1102 75.5278 9.99731C75.1369 9.79918 74.9769 9.5861 74.9369 9.52563C74.9014 9.47158 74.8784 9.41026 74.8696 9.34595C74.8607 9.28149 74.8664 9.2155 74.8862 9.15356C74.9059 9.09193 74.9387 9.03543 74.9828 8.98852C75.0272 8.94149 75.0819 8.90491 75.142 8.88208C75.1559 8.87668 76.4345 8.37927 77.2465 7.43286C76.7962 7.05797 76.4026 6.61752 76.0795 6.12622C75.4184 5.13224 74.6785 3.4052 74.9067 0.825439C74.914 0.743612 74.945 0.665893 74.9946 0.60083C75.0441 0.535769 75.1106 0.486175 75.1869 0.458251C75.2634 0.430341 75.3469 0.424509 75.4262 0.442626C75.5053 0.46078 75.578 0.501464 75.6352 0.559814C75.6538 0.57871 77.4095 2.34681 79.5561 2.92017V2.59204C79.5553 2.24727 79.6218 1.90518 79.7533 1.58716C79.8848 1.26926 80.0786 0.981752 80.3217 0.740478C80.5578 0.501702 80.8386 0.312824 81.1479 0.185791C81.4571 0.0587628 81.7888 -0.00445191 82.1225 0.000243673Z" fill="#2B8AE3"/>
<path d="M27.3909 14.9166C27.3909 18.7318 26.0951 21.9112 23.5037 24.4547C20.9362 26.9742 17.8288 28.234 14.1815 28.234C12.3818 28.234 10.6182 27.886 8.8905 27.1902C7.16283 26.4943 5.63913 25.5105 4.31939 24.2387C1.51193 21.5273 0.0842106 18.2279 0.03622 14.3407C0.03622 10.6214 1.36796 7.44202 4.03144 4.80253C6.71892 2.13905 9.92229 0.807312 13.6416 0.807312C17.5288 0.807312 20.7922 2.19904 23.4317 4.9825C26.0712 7.76596 27.3909 11.0773 27.3909 14.9166ZM3.56353 13.1889C3.56353 14.8206 3.77949 16.3923 4.21141 17.904C4.66732 19.4157 5.31519 20.7834 6.15503 22.0072C6.99486 23.2309 8.09865 24.2148 9.46638 24.9586C10.8341 25.7025 12.3578 26.0744 14.0375 26.0744C15.1653 26.0744 16.2691 25.8824 17.3488 25.4985C18.4286 25.1146 19.4604 24.5387 20.4442 23.7708C21.4281 22.979 22.2199 21.8752 22.8198 20.4595C23.4437 19.0438 23.7556 17.4121 23.7556 15.5644C23.7556 13.6208 23.4197 11.7252 22.7478 9.87755C22.0999 8.00591 21.0801 6.45821 19.6884 5.23445C17.8168 3.57877 15.6092 2.75093 13.0657 2.75093C11.8899 2.75093 10.7501 2.96689 9.64635 3.39881C8.54256 3.80673 7.52276 4.41861 6.58694 5.23445C5.67512 6.0263 4.94326 7.11808 4.39137 8.50981C3.83948 9.87755 3.56353 11.4372 3.56353 13.1889Z" fill="#0A0A0A"/>
<path d="M28.4534 15.9604C28.4534 14.8086 28.9333 13.8008 29.8931 12.937C30.8769 12.0491 32.1607 11.6052 33.7444 11.6052C34.0803 11.6052 34.3803 11.6292 34.6442 11.6772C34.9321 11.7012 35.1481 11.7252 35.2921 11.7492C35.46 11.7732 35.556 11.7852 35.58 11.7852C35.676 11.7852 35.82 11.7252 36.0119 11.6052C36.2039 11.4852 36.3719 11.4252 36.5158 11.4252C36.8038 11.4252 36.9957 11.6532 37.0917 12.1091C37.1637 12.469 37.2597 12.9729 37.3797 13.6208C37.4996 14.2687 37.5956 14.8206 37.6676 15.2765C37.7636 15.7084 37.8116 15.9484 37.8116 15.9964C37.8116 16.3803 37.5236 16.5722 36.9478 16.5722C36.7078 16.5722 36.5278 16.4883 36.4079 16.3203C36.3119 16.1283 36.2159 15.8644 36.1199 15.5284C36.0239 15.1925 35.916 14.9406 35.796 14.7726C35.532 14.4127 35.1001 14.0887 34.5002 13.8008C33.9243 13.4888 33.3485 13.3329 32.7726 13.3329C32.1247 13.3329 31.5728 13.5128 31.1169 13.8728C30.661 14.2327 30.433 14.7006 30.433 15.2765C30.433 16.5003 31.4048 17.3881 33.3485 17.94C33.5884 18.012 33.9483 18.1079 34.4282 18.2279C34.9082 18.3239 35.2801 18.4079 35.544 18.4799C35.808 18.5519 36.1199 18.6598 36.4798 18.8038C36.8638 18.9478 37.1997 19.1277 37.4876 19.3437C37.7756 19.5597 38.0515 19.8236 38.3155 20.1355C39.0593 20.9994 39.4313 21.9712 39.4313 23.051C39.4313 24.3467 38.9154 25.4985 37.8836 26.5063C36.8758 27.5141 35.52 28.018 33.8164 28.018C32.8805 28.018 31.9207 27.862 30.9369 27.5501C29.9771 27.2382 29.2453 26.7823 28.7414 26.1824C28.4534 25.8704 28.3094 25.4505 28.3094 24.9226C28.3094 24.5387 28.2974 24.1068 28.2734 23.6269C28.2734 23.147 28.2734 22.847 28.2734 22.727C28.2734 22.2471 28.3094 21.9352 28.3814 21.7912C28.4774 21.6473 28.6574 21.5753 28.9213 21.5753C29.1853 21.5753 29.3532 21.6832 29.4252 21.8992C29.4972 22.1152 29.5452 22.4391 29.5692 22.871C29.5932 23.2789 29.6652 23.6149 29.7851 23.8788C30.0011 24.3587 30.505 24.8386 31.2969 25.3185C32.1127 25.7984 33.0005 26.0384 33.9603 26.0384C34.8002 26.0384 35.508 25.8104 36.0839 25.3545C36.6598 24.8986 36.9478 24.3107 36.9478 23.5909C36.9478 23.135 36.8398 22.739 36.6238 22.4031C36.4319 22.0432 36.1199 21.7552 35.688 21.5393C35.2561 21.2993 34.9082 21.1314 34.6442 21.0354C34.3803 20.9154 33.9603 20.7834 33.3844 20.6395L32.5206 20.4595C29.8091 19.6676 28.4534 18.1679 28.4534 15.9604Z" fill="#0A0A0A"/>
<path d="M48.9709 13.8728C48.467 13.8728 48.215 13.7168 48.215 13.4049C48.215 13.2609 48.383 13.0449 48.7189 12.757C49.0788 12.445 49.5827 11.9411 50.2306 11.2453C50.8785 10.5254 51.4904 9.68558 52.0663 8.72577C52.3302 8.26986 52.5702 8.0419 52.7861 8.0419C53.122 8.0419 53.29 8.24586 53.29 8.65378C53.29 8.82175 53.278 9.25367 53.254 9.94953C53.254 10.6454 53.254 11.0773 53.254 11.2453C53.254 11.7252 53.494 11.9651 53.9739 11.9651H57.2852C57.3332 11.9651 57.3932 11.9771 57.4652 12.0011C57.5372 12.0011 57.5852 12.0011 57.6092 12.0011C58.233 12.0011 58.545 12.2291 58.545 12.685C58.545 13.1409 58.437 13.5008 58.2211 13.7648C58.1011 13.8848 57.8851 13.9448 57.5732 13.9448H53.254C53.0141 13.9448 52.8941 14.0647 52.8941 14.3047C52.8941 16.2963 52.8821 17.952 52.8581 19.2717C52.8581 20.5915 52.8461 21.4793 52.8221 21.9352C52.8221 22.3911 52.8221 22.715 52.8221 22.907C52.8221 24.7307 53.458 25.6425 54.7297 25.6425C55.2336 25.6425 55.7615 25.4625 56.3134 25.1026C56.8653 24.7187 57.3452 24.3467 57.7531 23.9868C58.1851 23.6029 58.509 23.4109 58.725 23.4109C58.9169 23.4109 59.0729 23.4829 59.1929 23.6269C59.3368 23.7708 59.4088 23.9268 59.4088 24.0948C59.4088 24.2387 59.3248 24.4427 59.1569 24.7067C57.2132 26.9142 55.4976 28.018 54.0099 28.018C53.122 28.018 52.3062 27.6701 51.5623 26.9742C50.8425 26.2544 50.4226 25.1146 50.3026 23.5549C50.2786 23.2909 50.2666 22.895 50.2666 22.3671C50.2666 21.7672 50.2906 20.3155 50.3386 18.012C50.3866 15.6844 50.4106 14.4127 50.4106 14.1967C50.4106 13.9807 50.3266 13.8728 50.1586 13.8728H48.9709Z" fill="#0A0A0A"/>
<path d="M72.241 26.1104C72.217 26.1104 72.1091 26.1824 71.9171 26.3263C71.7491 26.4463 71.5092 26.6023 71.1972 26.7943C70.9093 26.9622 70.5734 27.1422 70.1894 27.3341C69.8055 27.5021 69.3376 27.6461 68.7857 27.7661C68.2338 27.91 67.6699 27.982 67.094 27.982C65.5823 27.982 64.3226 27.5141 63.3148 26.5783C62.307 25.6425 61.6951 24.3347 61.4791 22.6551C61.4071 21.9352 61.3712 21.1793 61.3712 20.3875C61.3712 19.9316 61.3712 18.8758 61.3712 17.2201C61.3952 15.5404 61.4071 14.6286 61.4071 14.4846C61.4071 14.0287 61.0712 13.6808 60.3993 13.4409C60.2794 13.3929 60.0874 13.3329 59.8235 13.2609C59.5835 13.1889 59.4275 13.1169 59.3555 13.0449C59.2836 12.9729 59.2476 12.841 59.2476 12.649V12.541C59.2476 12.2291 59.3795 12.0611 59.6435 12.0371C62.091 11.8932 63.3748 11.8212 63.4947 11.8212C63.7347 11.8212 63.8547 11.9651 63.8547 12.2531V19.8116C63.8547 21.4193 64.0826 22.6911 64.5385 23.6269C64.8745 24.2747 65.3784 24.8506 66.0502 25.3545C66.7461 25.8344 67.538 26.0744 68.4258 26.0744C69.6255 26.0744 70.6693 25.6305 71.5572 24.7427C71.6052 24.6707 71.6652 24.5987 71.7371 24.5267C71.8331 24.4307 71.8931 24.3707 71.9171 24.3467C71.9411 24.2987 71.9771 24.2507 72.0251 24.2028C72.0731 24.1548 72.0971 24.1188 72.0971 24.0948C72.1211 24.0468 72.1451 23.9988 72.1691 23.9508C72.193 23.9028 72.205 23.8668 72.205 23.8428C72.205 23.7948 72.205 23.7348 72.205 23.6629V14.5926C72.205 14.0647 71.9651 13.7288 71.4852 13.5848C71.3652 13.5368 70.7893 13.4289 69.7575 13.2609C69.3976 13.1889 69.2176 12.9849 69.2176 12.649C69.2176 12.2891 69.3856 12.0851 69.7215 12.0371C70.5134 12.0131 71.2212 11.9891 71.8451 11.9651C72.493 11.9411 72.9369 11.9291 73.1769 11.9291C73.4408 11.9052 73.6568 11.8932 73.8247 11.8932C74.0167 11.8932 74.1607 11.8932 74.2567 11.8932C74.6166 11.8932 74.7965 12.1331 74.7965 12.613V24.1668C74.7965 24.2387 74.7965 24.2987 74.7965 24.3467C74.8205 24.3707 74.8445 24.4067 74.8685 24.4547C74.9165 24.4787 74.9645 24.5027 75.0125 24.5267C75.0605 24.5507 75.1325 24.5867 75.2285 24.6347C75.3244 24.6827 75.4324 24.7307 75.5524 24.7786C75.6724 24.8266 75.8283 24.8986 76.0203 24.9946C76.2123 25.0906 76.4162 25.1866 76.6322 25.2825C76.8481 25.3785 76.9561 25.5225 76.9561 25.7145C76.9561 25.9784 76.8961 26.1584 76.7762 26.2544C76.6802 26.3503 76.5242 26.4223 76.3083 26.4703C76.0923 26.4943 75.6964 26.6143 75.1205 26.8302C74.5446 27.0222 73.9207 27.3102 73.2488 27.6941C73.1049 27.7901 72.9729 27.838 72.8529 27.838C72.517 27.838 72.349 27.5981 72.349 27.1182V26.2544C72.349 26.1584 72.313 26.1104 72.241 26.1104Z" fill="#0A0A0A"/>
<path d="M80.3222 22.871C80.3222 21.6233 80.3222 20.4595 80.3222 19.3797C80.3222 18.2999 80.3222 17.4601 80.3222 16.8602C80.3462 16.2363 80.3582 15.8644 80.3582 15.7444C80.3582 15.4805 80.2622 15.3005 80.0702 15.2045C79.9023 15.0845 79.1704 14.7606 77.8747 14.2327C77.5627 14.1127 77.4068 13.9568 77.4068 13.7648C77.4068 13.6928 77.4188 13.6208 77.4428 13.5488C77.4907 13.4768 77.5507 13.4169 77.6227 13.3689C77.7187 13.3209 77.8027 13.2849 77.8747 13.2609C77.9467 13.2129 78.0426 13.1649 78.1626 13.1169C78.2826 13.0689 78.3666 13.0329 78.4146 13.0089C81.102 11.7132 82.4578 11.0653 82.4818 11.0653H82.5178C82.8537 11.0653 83.0217 11.2693 83.0217 11.6772L82.9857 12.865C82.9377 13.6568 82.8897 14.7246 82.8417 16.0683C82.8177 17.3881 82.8057 18.7078 82.8057 20.0276V21.2513C82.8057 23.5309 82.8417 24.8746 82.9137 25.2825C82.9857 25.6905 83.2256 25.9184 83.6335 25.9664C84.3534 26.0624 84.8093 26.1464 85.0013 26.2184C85.1932 26.2903 85.2892 26.4703 85.2892 26.7583C85.2892 27.2862 85.1453 27.5501 84.8573 27.5501C84.8333 27.5501 84.7613 27.5381 84.6413 27.5141C84.5214 27.5141 84.3534 27.5021 84.1374 27.4781C83.9215 27.4541 83.6815 27.4301 83.4176 27.4061C83.1536 27.3821 82.8417 27.3581 82.4818 27.3341C82.1458 27.3341 81.8099 27.3341 81.474 27.3341C81.138 27.3341 80.7901 27.3341 80.4302 27.3341C80.0702 27.3581 79.7583 27.3821 79.4944 27.4061C79.2544 27.4301 79.0264 27.4541 78.8105 27.4781C78.5945 27.5021 78.4266 27.5141 78.3066 27.5141C78.1866 27.5381 78.1146 27.5501 78.0906 27.5501C77.7067 27.5501 77.5147 27.3461 77.5147 26.9382C77.5147 26.5303 77.5867 26.2903 77.7307 26.2184C77.8987 26.1464 78.4386 26.0504 79.3504 25.9304C79.7823 25.8584 80.0462 25.7265 80.1422 25.5345C80.2622 25.3185 80.3222 25.0066 80.3222 24.5987V22.871Z" fill="#0A0A0A"/>
<path d="M86.5317 13.8728C86.0278 13.8728 85.7758 13.7168 85.7758 13.4049C85.7758 13.2609 85.9438 13.0449 86.2798 12.757C86.6397 12.445 87.1436 11.9411 87.7915 11.2453C88.4393 10.5254 89.0512 9.68558 89.6271 8.72577C89.891 8.26986 90.131 8.0419 90.347 8.0419C90.6829 8.0419 90.8509 8.24586 90.8509 8.65378C90.8509 8.82175 90.8389 9.25367 90.8149 9.94953C90.8149 10.6454 90.8149 11.0773 90.8149 11.2453C90.8149 11.7252 91.0548 11.9651 91.5347 11.9651H94.8461C94.8941 11.9651 94.9541 11.9771 95.026 12.0011C95.098 12.0011 95.146 12.0011 95.17 12.0011C95.7939 12.0011 96.1058 12.2291 96.1058 12.685C96.1058 13.1409 95.9979 13.5008 95.7819 13.7648C95.6619 13.8848 95.446 13.9448 95.134 13.9448H90.8149C90.5749 13.9448 90.4549 14.0647 90.4549 14.3047C90.4549 16.2963 90.4429 17.952 90.4189 19.2717C90.4189 20.5915 90.4069 21.4793 90.383 21.9352C90.383 22.3911 90.383 22.715 90.383 22.907C90.383 24.7307 91.0188 25.6425 92.2906 25.6425C92.7945 25.6425 93.3224 25.4625 93.8743 25.1026C94.4262 24.7187 94.9061 24.3467 95.314 23.9868C95.7459 23.6029 96.0698 23.4109 96.2858 23.4109C96.4778 23.4109 96.6337 23.4829 96.7537 23.6269C96.8977 23.7708 96.9697 23.9268 96.9697 24.0948C96.9697 24.2387 96.8857 24.4427 96.7177 24.7067C94.7741 26.9142 93.0584 28.018 91.5707 28.018C90.6829 28.018 89.8671 27.6701 89.1232 26.9742C88.4033 26.2544 87.9834 25.1146 87.8634 23.5549C87.8394 23.2909 87.8274 22.895 87.8274 22.3671C87.8274 21.7672 87.8514 20.3155 87.8994 18.012C87.9474 15.6844 87.9714 14.4127 87.9714 14.1967C87.9714 13.9807 87.8874 13.8728 87.7195 13.8728H86.5317Z" fill="#0A0A0A"/>
<path d="M97.3843 19.7396C97.3843 17.2441 98.0442 15.2405 99.3639 13.7288C100.684 12.2171 102.291 11.4612 104.187 11.4612C105.411 11.4612 106.587 11.7972 107.714 12.469C108.842 13.1409 109.778 13.9807 110.522 14.9886C110.714 15.2285 110.81 15.4925 110.81 15.7804V15.8524C110.81 16.0683 110.75 16.2603 110.63 16.4283C110.51 16.5962 110.318 16.7522 110.054 16.8962C109.79 17.0162 109.562 17.1121 109.37 17.1841C109.178 17.2561 108.89 17.3521 108.506 17.4721C108.146 17.592 107.918 17.664 107.822 17.688C102.807 19.4157 100.24 20.3155 100.12 20.3875C100.024 20.4355 99.9758 20.5075 99.9758 20.6035C99.9758 20.7474 100.012 20.9874 100.084 21.3233C100.156 21.6593 100.312 22.1032 100.552 22.6551C100.816 23.207 101.128 23.7228 101.488 24.2028C101.871 24.6587 102.411 25.0666 103.107 25.4265C103.803 25.7625 104.583 25.9304 105.447 25.9304C107.126 25.9304 108.59 25.3305 109.838 24.1308C110.174 23.7948 110.45 23.6269 110.666 23.6269C111.074 23.6269 111.278 23.8068 111.278 24.1668C111.278 24.3107 111.182 24.5027 110.99 24.7427C110.222 25.7505 109.262 26.5543 108.11 27.1542C106.958 27.7301 105.747 28.018 104.475 28.018C103.659 28.018 102.855 27.874 102.063 27.5861C101.296 27.2982 100.54 26.8542 99.7958 26.2544C99.076 25.6545 98.4881 24.7906 98.0322 23.6629C97.6003 22.5351 97.3843 21.2273 97.3843 19.7396ZM107.246 15.9244C107.246 15.6124 106.826 15.1325 105.987 14.4846C105.147 13.8128 104.271 13.4768 103.359 13.4768C102.279 13.4768 101.416 13.9448 100.768 14.8806C100.144 15.8164 99.8318 17.1001 99.8318 18.7318C99.8318 18.9238 99.8918 19.0198 100.012 19.0198C100.06 19.0198 101.2 18.5878 103.431 17.724C105.687 16.8362 106.85 16.3803 106.922 16.3563C107.138 16.2363 107.246 16.0923 107.246 15.9244Z" fill="#0A0A0A"/>
<path d="M112.016 15.9604C112.016 14.8086 112.496 13.8008 113.456 12.937C114.44 12.0491 115.723 11.6052 117.307 11.6052C117.643 11.6052 117.943 11.6292 118.207 11.6772C118.495 11.7012 118.711 11.7252 118.855 11.7492C119.023 11.7732 119.119 11.7852 119.143 11.7852C119.239 11.7852 119.383 11.7252 119.575 11.6052C119.767 11.4852 119.935 11.4252 120.079 11.4252C120.367 11.4252 120.559 11.6532 120.654 12.1091C120.726 12.469 120.822 12.9729 120.942 13.6208C121.062 14.2687 121.158 14.8206 121.23 15.2765C121.326 15.7084 121.374 15.9484 121.374 15.9964C121.374 16.3803 121.086 16.5722 120.511 16.5722C120.271 16.5722 120.091 16.4883 119.971 16.3203C119.875 16.1283 119.779 15.8644 119.683 15.5284C119.587 15.1925 119.479 14.9406 119.359 14.7726C119.095 14.4127 118.663 14.0887 118.063 13.8008C117.487 13.4888 116.911 13.3329 116.335 13.3329C115.687 13.3329 115.136 13.5128 114.68 13.8728C114.224 14.2327 113.996 14.7006 113.996 15.2765C113.996 16.5003 114.968 17.3881 116.911 17.94C117.151 18.012 117.511 18.1079 117.991 18.2279C118.471 18.3239 118.843 18.4079 119.107 18.4799C119.371 18.5519 119.683 18.6598 120.043 18.8038C120.427 18.9478 120.762 19.1277 121.05 19.3437C121.338 19.5597 121.614 19.8236 121.878 20.1355C122.622 20.9994 122.994 21.9712 122.994 23.051C122.994 24.3467 122.478 25.4985 121.446 26.5063C120.439 27.5141 119.083 28.018 117.379 28.018C116.443 28.018 115.483 27.862 114.5 27.5501C113.54 27.2382 112.808 26.7823 112.304 26.1824C112.016 25.8704 111.872 25.4505 111.872 24.9226C111.872 24.5387 111.86 24.1068 111.836 23.6269C111.836 23.147 111.836 22.847 111.836 22.727C111.836 22.2471 111.872 21.9352 111.944 21.7912C112.04 21.6473 112.22 21.5753 112.484 21.5753C112.748 21.5753 112.916 21.6832 112.988 21.8992C113.06 22.1152 113.108 22.4391 113.132 22.871C113.156 23.2789 113.228 23.6149 113.348 23.8788C113.564 24.3587 114.068 24.8386 114.86 25.3185C115.675 25.7984 116.563 26.0384 117.523 26.0384C118.363 26.0384 119.071 25.8104 119.647 25.3545C120.223 24.8986 120.511 24.3107 120.511 23.5909C120.511 23.135 120.403 22.739 120.187 22.4031C119.995 22.0432 119.683 21.7552 119.251 21.5393C118.819 21.2993 118.471 21.1314 118.207 21.0354C117.943 20.9154 117.523 20.7834 116.947 20.6395L116.083 20.4595C113.372 19.6676 112.016 18.1679 112.016 15.9604Z" fill="#0A0A0A"/>
<path d="M8.17064 50.0817C6.34699 50.0817 4.94326 50.6336 3.95946 51.7374C2.97565 52.8412 2.48374 54.3409 2.48374 56.2365C2.48374 58.3241 3.17961 59.9798 4.57134 61.2036C5.96307 62.4273 7.40279 63.0392 8.8905 63.0392C9.63435 63.0392 10.3542 62.8952 11.0501 62.6073C11.7699 62.2953 12.2019 61.9114 12.3458 61.4555C12.4418 61.0716 12.4898 60.7956 12.4898 60.6277V52.3493C12.4898 52.0373 12.3578 51.7494 12.0939 51.4854C11.0861 50.5496 9.77832 50.0817 8.17064 50.0817ZM8.24262 48.606C8.96248 48.606 9.63435 48.654 10.2582 48.75C10.8821 48.822 11.362 48.9059 11.6979 49.0019L12.2019 49.1459C12.3938 49.1459 12.4898 49.0379 12.4898 48.822V42.6312C12.4898 42.5592 12.4778 42.4992 12.4538 42.4512C12.4538 42.3792 12.4418 42.3192 12.4178 42.2712C12.4178 42.2232 12.3938 42.1753 12.3458 42.1273C12.3218 42.0793 12.2978 42.0433 12.2738 42.0193C12.2498 41.9953 12.1899 41.9593 12.0939 41.9113C12.0219 41.8633 11.9499 41.8273 11.8779 41.8033C11.8299 41.7553 11.7339 41.7073 11.59 41.6594C11.47 41.6114 11.35 41.5634 11.23 41.5154C11.1341 41.4674 10.9901 41.4074 10.7981 41.3354C10.6062 41.2634 10.4262 41.1914 10.2582 41.1195C9.80232 40.9995 9.57436 40.8075 9.57436 40.5436C9.57436 40.3996 9.68234 40.2556 9.8983 40.1117C12.9697 38.6239 14.5534 37.8801 14.6494 37.8801C14.9373 37.8801 15.0813 38.0481 15.0813 38.384C15.0813 38.6239 15.0693 39.2598 15.0453 40.2916C15.0213 41.2994 14.9973 42.7032 14.9733 44.5028C14.9733 46.2785 14.9733 48.2221 14.9733 50.3337C14.9733 56.9084 15.0093 60.5197 15.0813 61.1676C15.0813 61.2395 15.0813 61.2995 15.0813 61.3475C15.1053 61.3715 15.1293 61.4075 15.1533 61.4555C15.1773 61.4795 15.2013 61.5035 15.2253 61.5275C15.2733 61.5515 15.3212 61.5755 15.3692 61.5995C15.4412 61.5995 15.5012 61.6115 15.5492 61.6355C15.5972 61.6355 15.6692 61.6355 15.7652 61.6355C15.8851 61.6355 15.9811 61.6355 16.0531 61.6355C16.1491 61.6355 16.2691 61.6475 16.413 61.6715C16.557 61.6715 16.689 61.6715 16.809 61.6715C17.2889 61.6715 17.5288 61.8514 17.5288 62.2114C17.5288 62.3793 17.4568 62.5113 17.3129 62.6073C17.1929 62.7033 16.9169 62.8472 16.485 63.0392C16.0771 63.2072 15.6932 63.3991 15.3332 63.6151C14.8533 63.879 14.4214 64.143 14.0375 64.4069C13.6536 64.6949 13.3776 64.8988 13.2097 65.0188C13.0417 65.1628 12.9097 65.2348 12.8137 65.2348C12.6218 65.2348 12.5258 65.1028 12.5258 64.8388V63.6511C12.5258 63.5791 12.4898 63.5431 12.4178 63.5431L12.2019 63.6871C12.0819 63.783 11.9019 63.903 11.662 64.047C11.422 64.191 11.1341 64.3349 10.7981 64.4789C10.4862 64.6229 10.0783 64.7429 9.57436 64.8388C9.09446 64.9348 8.59055 64.9828 8.06266 64.9828C5.68712 64.9828 3.7435 64.179 2.23179 62.5713C0.744082 60.9396 0.000226974 58.936 0.000226974 56.5605C0.000226974 54.4249 0.684094 52.5652 2.05183 50.9815C3.44356 49.3979 5.49516 48.606 8.20663 48.606H8.24262Z" fill="#0A0A0A"/>
<path d="M17.6195 56.6684C17.6195 54.1969 18.3994 52.1813 19.9591 50.6216C21.5428 49.0619 23.4144 48.2821 25.574 48.2821C27.7815 48.2821 29.6172 49.0739 31.0809 50.6576C32.5446 52.2173 33.2765 54.2209 33.2765 56.6684C33.2765 59.1879 32.5086 61.1916 30.9729 62.6793C29.4612 64.143 27.6136 64.8748 25.43 64.8748C23.1264 64.8748 21.2428 64.083 19.7791 62.4993C18.3394 60.9156 17.6195 58.972 17.6195 56.6684ZM21.8667 61.2395C22.8025 62.4633 24.0263 63.0752 25.538 63.0752C27.0497 63.0752 28.2974 62.4633 29.2812 61.2395C30.2651 59.9918 30.757 58.5161 30.757 56.8124C30.757 54.8928 30.2051 53.2851 29.1013 51.9893C28.0215 50.6696 26.7617 50.0097 25.322 50.0097C24.1223 50.0097 23.0065 50.5376 21.9747 51.5934C20.9669 52.6492 20.463 54.2809 20.463 56.4885C20.463 58.4081 20.9309 59.9918 21.8667 61.2395Z" fill="#0A0A0A"/>
<path d="M47.8551 39.3198C48.6229 39.3198 49.3308 39.3078 49.9787 39.2838C50.6265 39.2598 51.1304 39.2358 51.4904 39.2118C51.8743 39.1878 52.1022 39.1758 52.1742 39.1758C52.5821 39.1758 52.7861 39.4158 52.7861 39.8957C52.7861 40.0637 52.7741 40.2076 52.7501 40.3276C52.7261 40.4476 52.6781 40.5436 52.6061 40.6156C52.5342 40.6875 52.4622 40.7475 52.3902 40.7955C52.3422 40.8435 52.2342 40.8915 52.0663 40.9395C51.9223 40.9635 51.7903 40.9755 51.6703 40.9755C51.5504 40.9755 51.3584 40.9875 51.0944 41.0115C50.8545 41.0355 50.6385 41.0595 50.4466 41.0835C49.7987 41.1315 49.4748 41.5514 49.4748 42.3432V62.1394C49.4748 63.5791 49.1748 64.9468 48.5749 66.2426C47.975 67.5383 47.1952 68.6541 46.2354 69.5899C46.0194 69.8059 45.7075 70.0698 45.2996 70.3818C44.8916 70.7177 44.3158 71.0656 43.5719 71.4256C42.852 71.8095 42.2282 72.0014 41.7003 72.0014C40.8604 72.0014 40.1646 71.7015 39.6127 71.1016C39.0368 70.5017 38.7488 69.8539 38.7488 69.158C38.7488 68.6541 38.9048 68.2222 39.2168 67.8623C39.5287 67.5263 39.9246 67.3584 40.4045 67.3584C40.8124 67.3584 41.1844 67.4783 41.5203 67.7183C41.8322 67.9822 42.0722 68.2702 42.2402 68.5821C42.4321 68.8941 42.6721 69.17 42.96 69.41C43.248 69.6739 43.5719 69.8059 43.9318 69.8059C44.7717 69.8059 45.3955 69.05 45.8035 67.5383C46.0194 66.7465 46.1274 65.9546 46.1274 65.1628V42.2712C46.1274 42.1033 46.1034 41.9593 46.0554 41.8393C46.0314 41.7193 45.9954 41.6234 45.9474 41.5514C45.9234 41.4554 45.8515 41.3834 45.7315 41.3354C45.6115 41.2634 45.5035 41.2154 45.4075 41.1914C45.3356 41.1435 45.1916 41.1075 44.9756 41.0835C44.7837 41.0595 44.6157 41.0475 44.4717 41.0475C44.3518 41.0235 44.1478 40.9995 43.8598 40.9755C43.5719 40.9515 43.332 40.9275 43.14 40.9035C42.5881 40.8315 42.3121 40.5676 42.3121 40.1117C42.3121 39.4638 42.5881 39.1398 43.14 39.1398C43.164 39.1398 43.26 39.1518 43.4279 39.1758C43.5959 39.1758 43.8239 39.1878 44.1118 39.2118C44.3997 39.2118 44.7237 39.2238 45.0836 39.2478C45.4435 39.2718 45.8515 39.2958 46.3074 39.3198C46.7873 39.3198 47.2552 39.3198 47.7111 39.3198H47.8551Z" fill="#0A0A0A"/>
<path d="M53.7406 51.4854C53.7406 50.7656 54.3165 50.0457 55.4683 49.3259C56.6441 48.582 57.9518 48.2101 59.3915 48.2101C59.8475 48.2101 60.3154 48.2581 60.7953 48.3541C61.2752 48.45 61.8151 48.618 62.415 48.858C63.0388 49.0979 63.5547 49.5178 63.9627 50.1177C64.3946 50.6936 64.6585 51.4015 64.7545 52.2413C64.8025 52.8172 64.8265 53.2611 64.8265 53.573V60.8436C64.8265 61.2755 64.9105 61.6235 65.0784 61.8874C65.2464 62.1514 65.4144 62.3193 65.5823 62.3913C65.7503 62.4393 65.9183 62.4633 66.0862 62.4633C66.4222 62.4633 66.6861 62.3673 66.8781 62.1754C67.07 61.9594 67.214 61.7554 67.31 61.5635C67.43 61.3475 67.5619 61.2395 67.7059 61.2395C67.9219 61.2395 68.0299 61.3955 68.0299 61.7075C68.0299 62.2833 67.7659 62.9192 67.238 63.6151C66.7101 64.287 66.0262 64.6229 65.1864 64.6229C64.8745 64.6229 64.5745 64.5749 64.2866 64.4789C63.9986 64.3829 63.7587 64.263 63.5667 64.119C63.3748 63.951 63.1948 63.795 63.0268 63.6511C62.8829 63.5071 62.7629 63.3751 62.6669 63.2552L62.5589 63.1112C62.5349 63.1112 62.5229 63.1112 62.5229 63.1112C62.5229 63.0872 62.5109 63.0752 62.4869 63.0752C62.4389 63.0752 62.403 63.0992 62.379 63.1472C62.355 63.1952 62.271 63.2911 62.127 63.4351C61.983 63.5791 61.7791 63.7351 61.5151 63.903C60.4353 64.5749 59.2956 64.9108 58.0958 64.9108C56.848 64.9108 55.8282 64.5149 55.0364 63.7231C54.2685 62.9312 53.8846 61.9594 53.8846 60.8076V60.7716C53.8846 59.3799 54.4005 58.2881 55.4323 57.4963C55.7922 57.2083 56.2602 56.9564 56.836 56.7404C57.4119 56.5005 57.9758 56.3205 58.5277 56.2005C59.1036 56.0805 59.6435 55.9846 60.1474 55.9126C60.6513 55.8166 61.0712 55.7566 61.4071 55.7326L61.911 55.6966C62.103 55.6486 62.199 55.4807 62.199 55.1927V53.861C62.199 52.5892 61.911 51.6054 61.3352 50.9096C60.7353 50.2617 60.0154 49.9377 59.1756 49.9377C57.8798 49.9377 56.824 50.7536 56.0082 52.3853C55.7922 52.6732 55.5283 52.8172 55.2164 52.8172C54.8324 52.8172 54.4845 52.6972 54.1726 52.4573C53.8846 52.2173 53.7406 51.8934 53.7406 51.4854ZM58.9596 62.8952C59.5115 62.8952 60.0274 62.7752 60.5073 62.5353C61.0112 62.2953 61.3592 62.0794 61.5511 61.8874C61.7431 61.6955 61.8991 61.5275 62.019 61.3835C62.163 61.1916 62.235 60.9156 62.235 60.5557V58.1441C62.235 57.6882 62.211 57.4003 62.163 57.2803C62.139 57.1363 62.043 57.0644 61.8751 57.0644C61.2752 57.0644 60.5193 57.1603 59.6075 57.3523C58.7197 57.5443 58.0118 57.8922 57.4839 58.3961C56.908 58.876 56.6201 59.5479 56.6201 60.4117C56.6201 61.3235 56.872 61.9954 57.3759 62.4273C57.7119 62.7393 58.2398 62.8952 58.9596 62.8952Z" fill="#0A0A0A"/>
<path d="M72.8356 50.2977C72.8596 50.2977 73.1236 50.1297 73.6275 49.7938C74.1314 49.4338 74.6953 49.0499 75.3192 48.642C75.943 48.2341 76.399 47.9821 76.6869 47.8861C76.9748 47.7902 77.3348 47.7422 77.7667 47.7422C78.4386 47.7422 79.0864 47.8981 79.7103 48.2101C80.3342 48.498 80.6461 48.882 80.6461 49.3619V49.3979C80.6461 49.5418 80.5981 49.6858 80.5022 49.8298C80.4062 49.9737 80.3222 50.0817 80.2502 50.1537C80.1782 50.2257 80.0582 50.3337 79.8903 50.4776L79.6383 50.6936C79.6143 50.6936 79.4824 50.7896 79.2424 50.9815C79.0264 51.1495 78.8345 51.2695 78.6665 51.3415C78.4985 51.4135 78.3186 51.4495 78.1266 51.4495C77.8387 51.4495 77.5027 51.2935 77.1188 50.9815C76.7589 50.6696 76.363 50.5136 75.931 50.5136C75.4031 50.5136 74.8393 50.7056 74.2394 51.0895C73.6395 51.4734 73.2556 51.7854 73.0876 52.0253C72.9916 52.1693 72.9436 52.3973 72.9436 52.7092V61.6715C72.9436 62.3673 73.2436 62.7393 73.8435 62.7872C74.0834 62.8112 74.4073 62.8352 74.8153 62.8592C75.5591 62.9072 76.027 62.9792 76.219 63.0752C76.4349 63.1472 76.5429 63.3511 76.5429 63.6871C76.5429 64.167 76.375 64.4069 76.039 64.4069C76.015 64.4069 75.931 64.3949 75.7871 64.3709C75.6671 64.3709 75.4871 64.3589 75.2472 64.3349C75.0072 64.3109 74.7433 64.287 74.4553 64.263C74.1674 64.239 73.8195 64.215 73.4115 64.191C73.0276 64.191 72.6557 64.191 72.2957 64.191C71.9118 64.191 71.5279 64.191 71.144 64.191C70.76 64.215 70.4121 64.239 70.1002 64.263C69.8122 64.287 69.5483 64.3109 69.3083 64.3349C69.0924 64.3589 68.9124 64.3709 68.7684 64.3709C68.6485 64.3949 68.5765 64.4069 68.5525 64.4069C68.1446 64.4069 67.9406 64.203 67.9406 63.795C67.9406 63.5791 67.9886 63.4231 68.0846 63.3271C68.1805 63.2072 68.2765 63.1352 68.3725 63.1112C68.4685 63.0632 68.6485 63.0272 68.9124 63.0032C69.2004 62.9552 69.4283 62.9072 69.5963 62.8592C70.0522 62.7632 70.2801 62.4753 70.2801 61.9954V52.2053C70.2801 52.0613 70.2681 51.9534 70.2441 51.8814C70.2202 51.7854 70.1482 51.6894 70.0282 51.5934C69.9322 51.4734 69.8242 51.3775 69.7043 51.3055C69.6083 51.2335 69.4043 51.0895 69.0924 50.8736C68.7804 50.6576 68.4925 50.4536 68.2285 50.2617C68.1566 50.1897 68.1086 50.1057 68.0846 50.0097C68.0846 49.9137 68.5765 49.6378 69.5603 49.1819C70.4481 48.75 71.252 48.3541 71.9718 47.9941C71.9958 47.9941 72.0318 47.9821 72.0798 47.9581C72.1758 47.9101 72.2478 47.8861 72.2957 47.8861C72.5837 47.8861 72.7277 48.1381 72.7277 48.642V50.1177C72.7277 50.2377 72.7637 50.2977 72.8356 50.2977Z" fill="#0A0A0A"/>
<path d="M88.7273 50.0817C86.9036 50.0817 85.4999 50.6336 84.5161 51.7374C83.5323 52.8412 83.0404 54.3409 83.0404 56.2365C83.0404 58.3241 83.7362 59.9798 85.128 61.2036C86.5197 62.4273 87.9594 63.0392 89.4471 63.0392C90.191 63.0392 90.9108 62.8952 91.6067 62.6073C92.3266 62.2953 92.7585 61.9114 92.9025 61.4555C92.9984 61.0716 93.0464 60.7956 93.0464 60.6277V52.3493C93.0464 52.0373 92.9145 51.7494 92.6505 51.4854C91.6427 50.5496 90.335 50.0817 88.7273 50.0817ZM88.7993 48.606C89.5191 48.606 90.191 48.654 90.8149 48.75C91.4387 48.822 91.9187 48.9059 92.2546 49.0019L92.7585 49.1459C92.9505 49.1459 93.0464 49.0379 93.0464 48.822V42.6312C93.0464 42.5592 93.0344 42.4992 93.0104 42.4512C93.0104 42.3792 92.9984 42.3192 92.9744 42.2712C92.9744 42.2232 92.9505 42.1753 92.9025 42.1273C92.8785 42.0793 92.8545 42.0433 92.8305 42.0193C92.8065 41.9953 92.7465 41.9593 92.6505 41.9113C92.5785 41.8633 92.5065 41.8273 92.4346 41.8033C92.3866 41.7553 92.2906 41.7073 92.1466 41.6594C92.0266 41.6114 91.9067 41.5634 91.7867 41.5154C91.6907 41.4674 91.5467 41.4074 91.3548 41.3354C91.1628 41.2634 90.9828 41.1914 90.8149 41.1195C90.359 40.9995 90.131 40.8075 90.131 40.5436C90.131 40.3996 90.239 40.2556 90.4549 40.1117C93.5263 38.6239 95.11 37.8801 95.206 37.8801C95.494 37.8801 95.6379 38.0481 95.6379 38.384C95.6379 38.6239 95.6259 39.2598 95.6019 40.2916C95.5779 41.2994 95.5539 42.7032 95.5299 44.5028C95.5299 46.2785 95.5299 48.2221 95.5299 50.3337C95.5299 56.9084 95.5659 60.5197 95.6379 61.1676C95.6379 61.2395 95.6379 61.2995 95.6379 61.3475C95.6619 61.3715 95.6859 61.4075 95.7099 61.4555C95.7339 61.4795 95.7579 61.5035 95.7819 61.5275C95.8299 61.5515 95.8779 61.5755 95.9259 61.5995C95.9979 61.5995 96.0578 61.6115 96.1058 61.6355C96.1538 61.6355 96.2258 61.6355 96.3218 61.6355C96.4418 61.6355 96.5378 61.6355 96.6097 61.6355C96.7057 61.6355 96.8257 61.6475 96.9697 61.6715C97.1136 61.6715 97.2456 61.6715 97.3656 61.6715C97.8455 61.6715 98.0855 61.8514 98.0855 62.2114C98.0855 62.3793 98.0135 62.5113 97.8695 62.6073C97.7495 62.7033 97.4736 62.8472 97.0417 63.0392C96.6337 63.2072 96.2498 63.3991 95.8899 63.6151C95.41 63.879 94.9781 64.143 94.5941 64.4069C94.2102 64.6949 93.9343 64.8988 93.7663 65.0188C93.5983 65.1628 93.4664 65.2348 93.3704 65.2348C93.1784 65.2348 93.0824 65.1028 93.0824 64.8388V63.6511C93.0824 63.5791 93.0464 63.5431 92.9744 63.5431L92.7585 63.6871C92.6385 63.783 92.4585 63.903 92.2186 64.047C91.9786 64.191 91.6907 64.3349 91.3548 64.4789C91.0428 64.6229 90.6349 64.7429 90.131 64.8388C89.6511 64.9348 89.1472 64.9828 88.6193 64.9828C86.2438 64.9828 84.3001 64.179 82.7884 62.5713C81.3007 60.9396 80.5569 58.936 80.5569 56.5605C80.5569 54.4249 81.2407 52.5652 82.6085 50.9815C84.0002 49.3979 86.0518 48.606 88.7633 48.606H88.7993Z" fill="#0A0A0A"/>
<path d="M98.2121 56.5964C98.2121 54.1009 98.872 52.0973 100.192 50.5856C101.511 49.0739 103.119 48.3181 105.015 48.3181C106.239 48.3181 107.414 48.654 108.542 49.3259C109.67 49.9977 110.606 50.8376 111.35 51.8454C111.542 52.0853 111.638 52.3493 111.638 52.6372V52.7092C111.638 52.9252 111.578 53.1171 111.458 53.2851C111.338 53.4531 111.146 53.609 110.882 53.753C110.618 53.873 110.39 53.969 110.198 54.0409C110.006 54.1129 109.718 54.2089 109.334 54.3289C108.974 54.4489 108.746 54.5209 108.65 54.5448C103.635 56.2725 101.068 57.1723 100.948 57.2443C100.852 57.2923 100.804 57.3643 100.804 57.4603C100.804 57.6043 100.84 57.8442 100.912 58.1801C100.984 58.5161 101.14 58.96 101.38 59.5119C101.643 60.0638 101.955 60.5797 102.315 61.0596C102.699 61.5155 103.239 61.9234 103.935 62.2833C104.631 62.6193 105.411 62.7872 106.275 62.7872C107.954 62.7872 109.418 62.1874 110.666 60.9876C111.002 60.6517 111.278 60.4837 111.494 60.4837C111.901 60.4837 112.105 60.6637 112.105 61.0236C112.105 61.1676 112.009 61.3595 111.817 61.5995C111.05 62.6073 110.09 63.4111 108.938 64.011C107.786 64.5869 106.575 64.8748 105.303 64.8748C104.487 64.8748 103.683 64.7309 102.891 64.4429C102.123 64.155 101.368 63.7111 100.624 63.1112C99.9038 62.5113 99.3159 61.6475 98.86 60.5197C98.4281 59.3919 98.2121 58.0842 98.2121 56.5964ZM108.074 52.7812C108.074 52.4693 107.654 51.9893 106.814 51.3415C105.975 50.6696 105.099 50.3337 104.187 50.3337C103.107 50.3337 102.243 50.8016 101.595 51.7374C100.972 52.6732 100.66 53.957 100.66 55.5886C100.66 55.7806 100.72 55.8766 100.84 55.8766C100.888 55.8766 102.027 55.4447 104.259 54.5808C106.515 53.693 107.678 53.2371 107.75 53.2131C107.966 53.0931 108.074 52.9492 108.074 52.7812Z" fill="#0A0A0A"/>
<path d="M120.079 63.6871C120.079 64.167 119.935 64.4069 119.647 64.4069C119.623 64.4069 119.539 64.3949 119.395 64.3709C119.275 64.3709 119.107 64.3589 118.891 64.3349C118.675 64.3109 118.435 64.287 118.171 64.263C117.907 64.239 117.595 64.215 117.235 64.191C116.875 64.191 116.527 64.191 116.191 64.191C115.855 64.191 115.519 64.191 115.184 64.191C114.848 64.215 114.548 64.227 114.284 64.227C114.02 64.251 113.78 64.275 113.564 64.2989C113.372 64.3229 113.216 64.3349 113.096 64.3349C112.976 64.3589 112.904 64.3709 112.88 64.3709C112.52 64.3709 112.34 64.155 112.34 63.7231V63.6151C112.34 63.3031 112.412 63.1112 112.556 63.0392C112.724 62.9432 113.156 62.8592 113.852 62.7872C114.284 62.7393 114.56 62.6073 114.68 62.3913C114.824 62.1514 114.896 61.8154 114.896 61.3835V42.6312C114.896 42.5592 114.884 42.4992 114.86 42.4512C114.86 42.3792 114.848 42.3192 114.824 42.2712C114.8 42.2232 114.776 42.1873 114.752 42.1633C114.752 42.1153 114.716 42.0793 114.644 42.0553C114.596 42.0073 114.548 41.9713 114.5 41.9473C114.476 41.9233 114.404 41.8873 114.284 41.8393C114.188 41.7673 114.116 41.7193 114.068 41.6953C113.828 41.5514 113.564 41.4074 113.276 41.2634C113.012 41.0955 112.82 40.9755 112.7 40.9035C112.604 40.8315 112.496 40.7595 112.376 40.6875C112.256 40.5916 112.172 40.5196 112.124 40.4716C112.1 40.3996 112.088 40.3276 112.088 40.2556V40.2196C112.088 40.0997 112.544 39.7997 113.456 39.3198C114.584 38.7679 115.639 38.228 116.623 37.7001C116.767 37.6041 116.923 37.5562 117.091 37.5562C117.427 37.5562 117.595 37.7841 117.595 38.24V61.5635C117.595 61.7075 117.595 61.8274 117.595 61.9234C117.619 62.0194 117.643 62.1154 117.667 62.2114C117.691 62.2833 117.715 62.3433 117.739 62.3913C117.763 62.4393 117.811 62.4873 117.883 62.5353C117.979 62.5833 118.039 62.6193 118.063 62.6433C118.111 62.6673 118.195 62.7033 118.315 62.7512C118.459 62.7752 118.555 62.7992 118.603 62.8232C118.675 62.8232 118.807 62.8352 118.999 62.8592C119.215 62.8832 119.371 62.9072 119.467 62.9312C119.875 63.0032 120.079 63.2552 120.079 63.6871Z" fill="#0A0A0A"/>
</svg>
